<!DOCTYPE svg PUBLIC "-//W3C//DTD SVG 1.1//EN" "http://www.w3.org/Graphics/SVG/1.1/DTD/svg11.dtd">
<!-- Uploaded to: SVG Repo, www.svgrepo.com, Transformed by: SVG Repo Mixer Tools -->
<svg xmlns="http://www.w3.org/2000/svg" xmlns:xlink="http://www.w3.org/1999/xlink" version="1.1" id="Layer_1" width="800px" height="800px" viewBox="0 0 128 128" xml:space="preserve" fill="#ffffff">
<g id="SVGRepo_bgCarrier" stroke-width="0"/>
<g id="SVGRepo_tracerCarrier" stroke-linecap="round" stroke-linejoin="round"/>
<g id="SVGRepo_iconCarrier"> <g> <circle style="fill:#497b94;" cx="64" cy="64" r="64"/> <path style="fill:#497b94;" d="M115.061,102.578L99.605,64.253c-0.028-0.159-0.08-0.314-0.158-0.468 c-0.073-0.522-0.396-1.032-1.004-1.429L45.462,27.644c-1.38-0.904-2.509-0.294-2.509,1.356v0.512v0.512V99v0.512V100l10.796,27.172 C57.088,127.71,60.51,128,64,128C84.855,128,103.376,118.02,115.061,102.578z"/> <path style="fill:#F5F5F5;" d="M42.953,29c0-1.65,1.129-2.26,2.509-1.356l52.981,34.712c1.38,0.904,1.38,2.384,0,3.289 l-52.981,34.711c-1.38,0.904-2.509,0.295-2.509-1.355V29z"/> </g> </g>
</svg>